<svg width="219" height="219" viewBox="0 0 219 219" fill="none" xmlns="http://www.w3.org/2000/svg">
<circle cx="109.5" cy="109.5" r="109.5" fill="white"/>
<path d="M106.834 46.6727C107.5 46.3139 108.244 46.126 109 46.126C109.756 46.126 110.5 46.3139 111.166 46.6727L170.478 78.6102C171.203 79.0012 171.808 79.5807 172.229 80.2876C172.651 80.9944 172.874 81.8021 172.874 82.6252C172.874 83.4483 172.651 84.256 172.229 84.9629C171.808 85.6697 171.203 86.2493 170.478 86.6402L111.166 118.578C110.5 118.937 109.756 119.124 109 119.124C108.244 119.124 107.5 118.937 106.834 118.578L47.5219 86.6402C46.7976 86.2493 46.1925 85.6697 45.7708 84.9629C45.3491 84.256 45.1265 83.4483 45.1265 82.6252C45.1265 81.8021 45.3491 80.9944 45.7708 80.2876C46.1925 79.5807 46.7976 79.0012 47.5219 78.6102L106.834 46.6727Z" fill="#40107B"/>
<path d="M55.8619 101.495L102.509 126.613C104.504 127.688 106.734 128.25 109 128.25C111.266 128.25 113.496 127.688 115.491 126.613L162.138 101.489L170.472 105.985C171.196 106.376 171.801 106.955 172.223 107.662C172.645 108.369 172.867 109.177 172.867 110C172.867 110.823 172.645 111.631 172.223 112.337C171.801 113.044 171.196 113.624 170.472 114.015L111.159 145.952C110.496 146.309 109.754 146.496 109 146.496C108.246 146.496 107.504 146.309 106.84 145.952L47.5278 114.015C46.8035 113.624 46.1984 113.044 45.7767 112.337C45.355 111.631 45.1323 110.823 45.1323 110C45.1323 109.177 45.355 108.369 45.7767 107.662C46.1984 106.955 46.8035 106.376 47.5278 105.985L55.8619 101.495Z" fill="#40107B"/>
<path d="M102.509 153.988L55.8619 128.864L47.5278 133.36C46.8035 133.751 46.1984 134.33 45.7767 135.037C45.355 135.744 45.1323 136.552 45.1323 137.375C45.1323 138.198 45.355 139.006 45.7767 139.712C46.1984 140.419 46.8035 140.999 47.5278 141.39L106.84 173.327C108.185 174.057 109.815 174.057 111.159 173.327L170.472 141.39C171.196 140.999 171.801 140.419 172.223 139.712C172.645 139.006 172.867 138.198 172.867 137.375C172.867 136.552 172.645 135.744 172.223 135.037C171.801 134.33 171.196 133.751 170.472 133.36L162.138 128.87L115.491 153.995C113.495 155.068 111.265 155.629 108.999 155.628C106.733 155.627 104.503 155.064 102.509 153.988Z" fill="#40107B"/>
</svg>
